<svg version="1.1" xmlns="http://www.w3.org/2000/svg" xmlns:xlink="http://www.w3.org/1999/xlink" width="128px" height="128px" viewBox="0,0,256,256"><g fill="none" fill-rule="nonzero" stroke="none" stroke-width="1" stroke-linecap="butt" stroke-linejoin="miter" stroke-miterlimit="10" stroke-dasharray="" stroke-dashoffset="0" font-family="none" font-weight="none" font-size="none" text-anchor="none" style="mix-blend-mode: normal"><g transform="scale(2,2)"><path d="M33.7,84.5c-1,0 -2,-0.5 -2.6,-1.5c-3.5,-6 -3.1,-13.2 1.1,-20.4c3.9,-6.7 10.9,-13.1 20.3,-18.5c10.5,-6 20.8,-8.9 29,-8.2c1.6,0.2 2.9,1.6 2.7,3.3c-0.2,1.7 -1.6,2.9 -3.3,2.7c-7,-0.7 -16.1,2 -25.5,7.4c-8.4,4.9 -14.7,10.5 -18.1,16.4c-2.2,3.7 -4.1,9.2 -1.1,14.4c0.8,1.4 0.3,3.3 -1.1,4.1c-0.4,0.2 -0.9,0.3 -1.4,0.3zM74,84.3c-1,0 -2,-0.5 -2.6,-1.5c-0.8,-1.4 -0.3,-3.3 1.1,-4.1c7.7,-4.4 13.6,-9.6 17.2,-14.9c0.9,-1.4 2.8,-1.7 4.2,-0.8c1.4,0.9 1.7,2.8 0.8,4.2c-4.1,6 -10.7,11.8 -19.2,16.7c-0.5,0.3 -1,0.4 -1.5,0.4z" fill="#5e9645"></path><path d="M79,93c-1,0 -2,-0.5 -2.6,-1.5c-0.8,-1.4 -0.3,-3.3 1.1,-4.1c10.9,-6.3 18.8,-14 22.9,-22.2c3.9,-7.8 3.8,-15.5 0,-22.2c-3.8,-6.7 -10.5,-10.6 -19.2,-11.1c-9.1,-0.6 -19.7,2.4 -30.7,8.7c-1.4,0.8 -3.3,0.3 -4.1,-1.1c-0.8,-1.4 -0.3,-3.3 1.1,-4.1c12,-6.9 23.7,-10.2 34.1,-9.5c10.6,0.7 19.2,5.7 24,14.1c4.9,8.4 4.9,18.3 0.2,27.9c-4.6,9.3 -13.3,17.8 -25.3,24.7c-0.5,0.3 -1,0.4 -1.5,0.4zM48.7,102.2c-0.1,0 -0.1,0 0,0c-11.7,-0.1 -21,-5.2 -26.2,-14.2c-0.8,-1.4 -0.3,-3.3 1.1,-4.1c1.4,-0.8 3.3,-0.3 4.1,1.1c4.2,7.2 11.4,11.1 21.1,11.2c1.7,0 3,1.4 3,3c-0.2,1.7 -1.5,3 -3.1,3zM21.6,51.2c-0.6,0 -1.3,-0.2 -1.9,-0.6c-1.3,-1 -1.5,-2.9 -0.5,-4.2c2,-2.5 4.3,-5 6.8,-7.4c1.2,-1.1 3.1,-1.1 4.2,0.1c1.1,1.2 1.1,3.1 -0.1,4.2c-2.3,2.2 -4.4,4.5 -6.2,6.8c-0.6,0.7 -1.4,1.1 -2.3,1.1z" fill="#5e9645"></path><path transform="translate(-23.42716,40.57264) rotate(-30)" d="M64,54c-13.80712,0 -25,4.47715 -25,10c0,5.52285 11.19288,10 25,10c13.80712,0 25,-4.47715 25,-10c0,-5.52285 -11.19288,-10 -25,-10z" fill="#8cca41"></path></g></g></svg>